{"title":"The Notorious Landlady (1962) Broadcast to h264 AVC -Classic-.mp","uid":5802611,"size":1358314405,"categoryP":"video","categoryS":"movies","magnet":"?xt=urn:btih:8c7f8f67ba7f2ebaa178b766bba35ce4cc75b456&amp;dn=The+Notorious+Landlady+%281962%29+Broadcast+to+h264+AVC+-Classic-.mp&amp;tr=udp%3A%2F%2Ftracker.openbittorrent.com%3A80&amp;tr=udp%3A%2F%2Fopen.demonii.com%3A1337&amp;tr=udp%3A%2F%2Ftracker.coppersurfer.tk%3A6969&amp;tr=udp%3A%2F%2Fexodus.desync.com%3A6969","seeders":1,"leechers":0,"uploader":"classicman","files":1,"time":1283316194,"description":"When American diplomat William Gridley (Lemmon) arrives in London, he rents part of Carly Hardwicke's (Novak) house from her and promptly begins to fall in love. Gridley doesn't know that many people think she killed her husband, as he has disappeared, but without a body, the police can do nothing.\n\nThe Notorious Landlady (1962) Broadcast to h264 AVC -Classic-.mp4\nFormat                           : MPEG-4\nFormat profile                   : Nero Digital AVC HDTV Profile\nCodec ID                         : ndxh\nFile size                        : 1.27 GiB\nDuration                         : 2h 2mn\nOverall bit rate                 : 1 475 Kbps\nEncoded date                     : UTC 2010-08-30 22:42:47\nTagged date                      : UTC 2010-08-31 06:05:02\n\nVideo\nID                               : 1\nFormat                           : AVC\nFormat/Info                      : Advanced Video Codec\nFormat profile                   : &lt;a class=&quot;__cf_email__&quot; href=&quot;/cdn-cgi/l/email-protection&quot; data-cfemail=&quot;0d45646a654d413f233d&quot;&gt;[email&amp;#160;protected]&lt;/a&gt;&lt;script data-cfhash='f9e31' type=&quot;text/javascript&quot;&gt;\n/* &lt;![CDATA[ */!function(){try{var t=&quot;currentScript&quot;in document?document.currentScript:function(){for(var t=document.getElementsByTagName(&quot;script&quot;),e=t.length;e--;)if(t[e].getAttribute(&quot;data-cfhash&quot;))return t[e]}();if(t&amp;&amp;t.previousSibling){var e,r,n,i,c=t.previousSibling,a=c.getAttribute(&quot;data-cfemail&quot;);if(a){for(e=&quot;&quot;,r=parseInt(a.substr(0,2),16),n=2;a.length-n;n+=2)i=parseInt(a.substr(n,2),16)^r,e+=String.fromCharCode(i);e=document.createTextNode(e),c.parentNode.replaceChild(e,c)}t.parentNode.removeChild(t);}}catch(u){}}()/* ]]&gt; */&lt;/script&gt;\nFormat settings, CABAC           : Yes\nFormat settings, ReFrames        : 2 frames\nCodec ID                         : avc1\nCodec ID/Info                    : Advanced Video Coding\nDuration                         : 2h 2mn\nBit rate mode                    : Variable\nBit rate                         : 1 343 Kbps\nMaximum bit rate                 : 2 991 Kbps\nWidth                            : 336 pixels\nHeight                           : 248 pixels\nDisplay aspect ratio             : 4:3\nFrame rate mode                  : Constant\nFrame rate                       : 29.970 fps\nStandard                         : NTSC\nResolution                       : 24 bits\nColorimetry                      : 4:2:0\nScan type                        : Progressive\nBits/(Pixel*Frame)               : 0.538\nStream size                      : 1.15 GiB (91%)\nLanguage                         : English\nEncoded date                     : UTC 2010-08-30 22:42:47\nTagged date                      : UTC 2010-08-31 06:05:02\n\nAudio\nID                               : 2\nFormat                           : AAC\nFormat/Info                      : Advanced Audio Codec\nFormat version                   : Version 4\nFormat profile                   : LC\nFormat settings, SBR             : Yes\nFormat settings, PS              : No\nCodec ID                         : 40\nDuration                         : 2h 2mn\nBit rate mode                    : Variable\nBit rate                         : 129 Kbps\nMaximum bit rate                 : 156 Kbps\nChannel(s)                       : 2 channels\nChannel positions                : L R\nSampling rate                    : 48.0 KHz\nResolution                       : 16 bits\nStream size                      : 113 MiB (9%)\nLanguage                         : English","torrent":{"xt":"urn:btih:8c7f8f67ba7f2ebaa178b766bba35ce4cc75b456","amp;dn":"The+Notorious+Landlady+%281962%29+Broadcast+to+h264+AVC+-Classic-.mp","amp;tr":["udp%3A%2F%2Ftracker.openbittorrent.com%3A80","udp%3A%2F%2Fopen.demonii.com%3A1337","udp%3A%2F%2Ftracker.coppersurfer.tk%3A6969","udp%3A%2F%2Fexodus.desync.com%3A6969"],"infoHash":"8c7f8f67ba7f2ebaa178b766bba35ce4cc75b456","infoHashBuffer":{"type":"Buffer","data":[140,127,143,103,186,127,46,186,161,120,183,102,187,163,92,228,204,117,180,86]},"announce":[],"urlList":[]}}